<?xml version="1.0" encoding="utf-8"?>
<!-- Generator: Adobe Illustrator 19.0.0, SVG Export Plug-In . SVG Version: 6.00 Build 0)  -->
<svg version="1.1" id="Layer_1" xmlns="http://www.w3.org/2000/svg" xmlns:xlink="http://www.w3.org/1999/xlink" x="0px" y="0px"
	 viewBox="0 0 29.2 29.2" style="enable-background:new 0 0 29.2 29.2;" xml:space="preserve">
<style type="text/css">
	.st0{fill:#999999;}
</style>
<g id="XMLID_729_">
	<path id="XMLID_797_" class="st0" d="M14.6,29.2c8.1,0,14.6-6.5,14.6-14.6S22.6,0,14.6,0C6.5,0,0,6.5,0,14.6
		C0,22.6,6.5,29.2,14.6,29.2z M14.6,1c7.5,0,13.5,6.1,13.5,13.5s-6.1,13.5-13.5,13.5S1,22.1,1,14.6S7.1,1,14.6,1z"/>
	<polygon id="XMLID_796_" class="st0" points="13.8,20.1 15.3,21.6 22.3,14.6 15.3,7.6 13.8,9.1 18.3,13.5 6.3,13.5 6.3,15.6 
		18.3,15.6 	"/>
</g>
</svg>
