<?xml version="1.0" encoding="utf-8"?>
<!-- Generator: Adobe Illustrator 19.0.0, SVG Export Plug-In . SVG Version: 6.00 Build 0)  -->
<svg version="1.1" id="Layer_1" xmlns="http://www.w3.org/2000/svg" xmlns:xlink="http://www.w3.org/1999/xlink" x="0px" y="0px"
	 viewBox="-102 97.5 154.1 166.5" style="enable-background:new -102 97.5 154.1 166.5;" xml:space="preserve">
<style type="text/css">
	.st0{fill:none;stroke:#2B97D3;stroke-width:2;stroke-miterlimit:10;}
	.st1{fill:#B4E3F9;}
	.st2{clip-path:url(#SVGID_2_);fill:#FFFFFF;stroke:#2C97D3;stroke-width:4;stroke-linejoin:round;stroke-miterlimit:10;}
	.st3{clip-path:url(#SVGID_2_);fill:none;stroke:#0F4169;stroke-width:4;stroke-linecap:round;stroke-miterlimit:10;}
	.st4{clip-path:url(#SVGID_2_);fill:none;stroke:#0F4169;stroke-width:2;stroke-linecap:round;stroke-miterlimit:10;}
	.st5{fill:none;stroke:#2B97D3;stroke-width:7;stroke-linejoin:round;stroke-miterlimit:10;}
	.st6{fill:#BDBCBC;stroke:#2B97D3;stroke-width:3;stroke-linecap:round;stroke-miterlimit:10;}
	.st7{fill:none;stroke:#2C97D3;stroke-width:2;stroke-miterlimit:10;}
	.st8{fill:#2B97D3;stroke:#2B97D3;stroke-width:2;stroke-miterlimit:10;}
	.st9{fill:#FFFFFF;}
	.st10{fill:#BDBCBC;}
	.st11{fill:#FFFFFF;stroke:#2C97D3;stroke-width:3;stroke-linecap:round;stroke-miterlimit:10;}
	.st12{fill:none;stroke:#2C97D3;stroke-width:3;stroke-miterlimit:10;}
	.st13{fill:none;stroke:#2B97D3;stroke-linecap:round;stroke-miterlimit:10;}
	.st14{fill:none;stroke:#2B97D3;stroke-width:5;stroke-linecap:round;stroke-miterlimit:10;}
	.st15{fill:none;stroke:#2B97D3;stroke-width:7;stroke-linecap:round;stroke-miterlimit:10;}
	.st16{fill:none;stroke:#2B97D3;stroke-width:2;stroke-linecap:round;stroke-miterlimit:10;}
	.st17{fill:none;stroke:#2B97D3;stroke-width:3;stroke-linecap:round;stroke-miterlimit:10;}
</style>
<circle class="st0" cx="-24.9" cy="186.7" r="76.1"/>
<path class="st1" d="M29.9,146.3c8.3,11.3,13.2,25.2,13.2,40.3c0,37.6-30.5,68-68,68s-68-30.5-68-68s30.5-68,68-68
	C-2.4,118.6,17.5,129.5,29.9,146.3"/>
<g>
	<defs>
		<circle id="SVGID_1_" cx="-24.9" cy="186.6" r="68"/>
	</defs>
	<clipPath id="SVGID_2_">
		<use xlink:href="#SVGID_1_"  style="overflow:visible;"/>
	</clipPath>
	<path class="st2" d="M44.4,257h-138c0-30.5,30.9-55.3,69-55.3S44.4,226.5,44.4,257z"/>
	<circle class="st3" cx="76" cy="217.6" r="20.1"/>
	<circle class="st4" cx="76" cy="217.6" r="27.2"/>
</g>
<circle class="st5" cx="-24.9" cy="186.6" r="68"/>
<path class="st6" d="M-73,163.2c-1.6-4.7-2.5-9.8-2.5-15c0-26.7,22.7-48.4,50.8-48.4s50.8,21.7,50.8,48.4c0,5.2-0.9,10.3-2.5,15"/>
<polyline class="st7" points="-47.7,216.4 -36.1,227.7 -25,239 -13.6,227.7 -2.2,216.4 "/>
<g id="E21zJq_1_">
	<g>
		<path class="st8" d="M-22.5,237c-0.1-0.8,0.3-1.3,0.8-1.8c1.2-1.1,2.6-2,4.1-2.5c1.5-0.5,2.1-1.1,3.6-1.4c1.6-0.3,2.1,0.5,2.3,0.9
			c0.7,1.3,0.8,2.1,0.9,3.5c0.3,2.6,0.3,4.9-0.6,7.4c-0.2,0.5-0.8,2.1-2.1,2.1c-3,0-5.3-1.6-7.8-3.5c-0.1-0.1-0.3-0.2-0.4-0.3
			c-0.7-0.6-1.2-1.2-1-2.2C-22.5,238.8-22.5,237.4-22.5,237z"/>
		<path class="st8" d="M-27.1,237c0.1-0.8-0.3-1.3-0.8-1.8c-1.2-1.1-2.6-2-4.1-2.5c-1.5-0.5-2.1-1.1-3.6-1.4
			c-1.6-0.3-2.1,0.5-2.3,0.9c-0.7,1.3-0.8,2.1-0.9,3.5c-0.3,2.6-0.3,4.9,0.6,7.4c0.2,0.5,0.8,2.1,2.1,2.1c3,0,5.3-1.6,7.8-3.5
			c0.1-0.1,0.3-0.2,0.4-0.3c0.7-0.6,1.2-1.2,1-2.2C-27.2,238.8-27.1,237.4-27.1,237z"/>
		<path class="st8" d="M-22.3,238.4c0,0.9,0,1.1,0,2c0,0.6-0.2,0.8-0.8,0.8c-1,0-2,0-3.1,0c-0.6,0-0.8-0.3-0.8-0.8
			c0-1.8,0-1.1,0-2.9c0-0.6,0.3-0.9,0.9-0.9c1,0,2,0,3,0c0.6,0,0.8,0.3,0.9,0.9C-22.3,238.4-22.3,237.6-22.3,238.4z"/>
	</g>
</g>
<path class="st9" d="M-69.8,139.9c0.2-0.9,47.9,0.7,65.1-27.7c0.2-0.3,0.4-1,0.4-0.8c1.4,25.6,24.1,24.2,24.1,24.2l1.8,12.2l0,58.9
	h-92.1C-70.5,206.8-72.7,153.1-69.8,139.9z"/>
<path class="st10" d="M-3.8,227.2c0,0,25.8-3.8,26.4-34l0-32.9c0,0-9.5,55.6-28.7,35.2c-18.7-20.2-37.3,0-37.3,0
	c-19.5,20.4-28.7-35.2-28.7-35.2v30.2c0,0-1.1,31.7,24.7,36.4"/>
<path class="st11" d="M-72.4,176.3c-5.6,0-10.2-4.6-10.2-10.2c0-5.6,4.6-10.2,10.2-10.2"/>
<path class="st11" d="M22.5,156c5.6,0,10.2,4.6,10.2,10.2c0,5.6-4.6,10.2-10.2,10.2"/>
<g>
	<path class="st12" d="M-70.3,140.5c-1.4,5-2.1,10.3-2.1,15.7c0,0,0,0.1,0,0.1c0,0,0,0.1,0,0.1v37.6c0,17.8,12.9,32.4,28.7,32.4h0
		l37.5,0c15.8,0,28.7-14.6,28.7-32.4v-37.6c0,0,0-0.1,0-0.1c0,0,0-0.1,0-0.1c0-7.3-1.3-14.3-3.6-20.6"/>
</g>
<path class="st13" d="M-46.1,169.5c-1.2,1.2-2.9,1.9-4.9,1.9c-2,0-3.8-0.8-5-2"/>
<path class="st13" d="M6.1,169.5c-1.2,1.2-2.9,1.9-4.9,1.9c-2,0-3.8-0.8-5-2"/>
<g>
	<g>
		
			<image style="overflow:visible;opacity:0.1;" width="45" height="26" xlink:href="77F06175A7E700B9.png"  transform="matrix(1 0 0 1 -70.2031 156.4006)">
		</image>
		<g>
			<path class="st0" d="M-58.4,177.6h23.8c2.6,0,4.6-1.6,4.6-3.6v-9.4c0-2-2.1-3.6-4.6-3.6h-26.1c-2.9,0-5.1,2-4.5,4.2l2.3,9.4
				C-62.6,176.4-60.7,177.6-58.4,177.6z"/>
		</g>
	</g>
	<g>
		
			<image style="overflow:visible;opacity:0.1;" width="44" height="26" xlink:href="77F06175A7E700B8.png"  transform="matrix(1 0 0 1 -24.2031 156.4006)">
		</image>
		<g>
			<path class="st0" d="M8.5,177.6h-23.8c-2.6,0-4.6-1.6-4.6-3.6v-9.4c0-2,2.1-3.6,4.6-3.6h26.1c2.9,0,5.1,2,4.5,4.2l-2.3,9.4
				C12.7,176.4,10.8,177.6,8.5,177.6z"/>
		</g>
	</g>
	<path class="st14" d="M-30.8,168.9c0,0,5.8-1.6,11.7,0"/>
</g>
<g>
	<line class="st15" x1="-51.2" y1="160.9" x2="-51.2" y2="165.4"/>
	<line class="st15" x1="1.4" y1="160.9" x2="1.4" y2="165.4"/>
</g>
<path class="st16" d="M-56.9,154.6c0,0,5.8-6.1,10.9,0"/>
<path class="st16" d="M-4,154.6c0,0,5.8-6.1,10.9,0"/>
<g>
	<path class="st16" d="M-5,112.1c0,0-7.4,25.2-65.7,27.8"/>
	<path class="st16" d="M-5,112.1c0,0,1,21.2,24.5,23.5"/>
</g>
<path class="st17" d="M-16.2,195.1c-2,2.3-5.1,3.8-8.6,3.8c-3.5,0-6.6-1.5-8.7-3.8"/>
</svg>
