<?xml version="1.0" encoding="utf-8"?>
<!-- Generator: Adobe Illustrator 19.0.0, SVG Export Plug-In . SVG Version: 6.00 Build 0)  -->
<svg version="1.1" id="Layer_1" xmlns="http://www.w3.org/2000/svg" xmlns:xlink="http://www.w3.org/1999/xlink" x="0px" y="0px"
	 viewBox="0 0 49.3 49.5" style="enable-background:new 0 0 49.3 49.5;" xml:space="preserve">
<style type="text/css">
	.st0{fill-rule:evenodd;clip-rule:evenodd;fill:#8C8B8B;}
</style>
<g>
	<g>
		<path class="st0" d="M30.3,13.4c0.3,0.5,0.5,1.1,0.7,1.9c1-0.1,2.1-0.2,3.2-0.1l0,0C32.9,14.4,31.6,13.8,30.3,13.4L30.3,13.4z
			 M27.1,24.8c0.3,0,0.6,0.1,0.8,0.4c0.6-0.1,1.2-0.1,1.8-0.1c0.2-1.1,0.3-2.1,0.4-3.1c-1.6-1.3-3.4-2.5-5.1-3.4
			c-0.7,1.6-1.3,3.3-1.9,5.2c0.6,0.4,1.1,1.1,1.2,1.8c0.6-0.1,1.2-0.2,1.9-0.3C26.4,25,26.7,24.8,27.1,24.8L27.1,24.8z M28.2,26.1
			c-0.1,0.5-0.5,0.9-1.1,0.9c-0.5,0-0.8-0.3-1-0.7c-0.6,0.1-1.1,0.2-1.7,0.2c-0.1,1.5-1.4,2.6-2.8,2.7c-0.4,1.5-0.7,3.1-1,4.6
			c0.6,0,1.2-0.1,1.8-0.1c0.2-1,0.9-1.7,1.9-1.7c0.8,0,1.5,0.5,1.8,1.3c0.7-0.1,1.3-0.2,2-0.3c0.2-0.9,0.4-1.7,0.6-2.6
			c-0.4-0.3-0.7-0.7-0.7-1.3c0-0.8,0.6-1.4,1.3-1.5c0.1-0.6,0.2-1.1,0.3-1.7C29.2,26,28.7,26,28.2,26.1L28.2,26.1z M7.2,30.8
			c0.6-0.5,1.7-1.1,3.1-1.7C9.3,26.7,9,24,9.5,21.5c-1.5,2.6-2.3,5.5-2.3,8.7C7.2,30.4,7.2,30.6,7.2,30.8L7.2,30.8z M12.3,28.4
			c1.8-0.6,3.9-1.2,6.2-1.7c0-0.1,0-0.3,0-0.4c0-1.6,1.3-3,2.9-3c0.6-1.8,1.2-3.6,1.9-5.1c-2,1-3.9,2.4-5.7,4
			c0.1,0.2,0.2,0.4,0.2,0.7c0,0.8-0.6,1.5-1.4,1.5c-0.3,0-0.5-0.1-0.7-0.2C14.4,25.5,13.3,26.9,12.3,28.4L12.3,28.4z M30.6,24.9
			c0.5,0,1,0,1.4,0c0-0.4,0.2-0.7,0.3-1c-0.5-0.5-1-0.9-1.4-1.4C30.9,23.3,30.8,24.1,30.6,24.9L30.6,24.9z M36.6,25.1
			c1,0.1,1.9,0.3,2.8,0.5c0.6-2.8,0.2-5.3-1.6-7c-2.1-1.6-4.3-2.3-6.7-2.3c0.2,1.4,0.2,3,0,4.8c0.8,0.7,1.6,1.4,2.3,2.1
			c0.3-0.1,0.6-0.2,0.9-0.2C35.5,22.9,36.5,23.9,36.6,25.1L36.6,25.1z M41.1,26c0.4,0.1,0.8,0.3,1.1,0.5c-0.2-0.9-0.5-1.8-0.8-2.7
			C41.4,24.5,41.3,25.3,41.1,26L41.1,26z M42.5,27.7c-0.5-0.3-1.1-0.5-1.6-0.7c-0.2,0.8-0.6,1.7-1,2.6c1-0.5,1.8-1,2.6-1.5
			C42.5,28,42.5,27.9,42.5,27.7L42.5,27.7z M39.1,26.6c-0.9-0.2-1.8-0.4-2.7-0.5c0,0.1-0.1,0.2-0.2,0.3c0.7,0.9,1.3,1.9,1.8,2.9
			C38.5,28.4,38.9,27.5,39.1,26.6L39.1,26.6z M32.1,25.9c-0.6,0-1.1,0-1.7,0c-0.1,0.6-0.2,1.2-0.4,1.9c0.5,0.2,0.9,0.8,0.9,1.4
			c0,0.8-0.7,1.5-1.5,1.5l0,0c-0.2,0.8-0.4,1.5-0.6,2.2c2.9-0.5,5.8-1.2,8.4-2.1c-0.5-1.2-1.2-2.3-2-3.4c-0.3,0.1-0.6,0.2-0.9,0.2
			C33.3,27.5,32.4,26.8,32.1,25.9L32.1,25.9z M18.9,27.6c-2.7,0.7-5.2,1.4-7.2,2.2c0.5,1.4,1.2,2.8,2.1,4.1c1.5,0.1,3.2,0.1,5,0
			c0.3-1.7,0.7-3.4,1.1-5.2C19.5,28.5,19.1,28.1,18.9,27.6L18.9,27.6z M10.5,30.3c-1.6,0.6-2.7,1.3-3.2,1.7c0,0.3,0.1,0.5,0.1,0.8
			c0.4,0.2,1,0.4,1.8,0.6C9.5,32.4,10,31.3,10.5,30.3L10.5,30.3z M26.1,34.7c-0.3,0.8-1,1.4-1.8,1.4c-0.7,0-1.3-0.4-1.7-1
			c-0.8,0.1-1.6,0.1-2.3,0.2c-0.3,1.7-0.5,3.3-0.6,4.8c1.2,0.8,2.5,1.7,4,2.4c0.5-0.2,0.9-0.4,1.4-0.6c0.9-2.1,1.8-4.7,2.5-7.4
			C27.1,34.6,26.6,34.7,26.1,34.7L26.1,34.7z M9.9,33.6c0.8,0.1,1.8,0.2,2.8,0.3c-0.7-1-1.3-2-1.7-3C10.5,31.8,10.2,32.7,9.9,33.6
			L9.9,33.6z M42.6,29.6c-1,0.7-2.2,1.3-3.5,1.9c1,2.4,1.5,4.9,1.3,7.3c1.4-2.5,2.3-5.5,2.3-8.6C42.6,30,42.6,29.8,42.6,29.6
			L42.6,29.6z M36,32.7c-2.4,0.8-5,1.3-7.6,1.8c-0.7,2.5-1.6,5-2.4,7.1c1.4-0.7,2.7-1.6,4-2.6c-0.1-0.3-0.1-0.5-0.1-0.8
			c0-1.4,1.1-2.5,2.5-2.5c0.4,0,0.7,0.1,1.1,0.2C34.4,34.8,35.3,33.7,36,32.7L36,32.7z M18.5,35.3c-1.3,0-2.6,0-3.8,0
			c0.3,0.4,0.6,0.8,0.9,1.1c0.2-0.1,0.4-0.2,0.6-0.2c0.7,0,1.3,0.5,1.3,1.2c0,0.3-0.1,0.5-0.2,0.7c0.2,0.2,0.5,0.4,0.7,0.6
			C18.2,37.7,18.4,36.5,18.5,35.3L18.5,35.3z M13.8,35.3c-1.7-0.1-3.1-0.2-4.2-0.4c-0.4,1.9-0.3,3.6,0.4,5c0.2,0.4,0.5,0.7,0.7,1
			c2.2,1.8,4.7,2.6,7.3,2.7c-0.1-1.2-0.1-2.5,0-4c-0.2-0.1-0.3-0.2-0.4-0.4c-0.2-0.2-0.5-0.4-0.7-0.6c-0.2,0.1-0.4,0.1-0.6,0.1
			c-0.7,0-1.3-0.5-1.3-1.2c0-0.2,0.1-0.4,0.2-0.6C14.7,36.4,14.2,35.9,13.8,35.3L13.8,35.3z M8.8,34.7c-0.5-0.1-0.9-0.3-1.2-0.5
			c0.2,0.9,0.5,1.7,0.8,2.6C8.5,36.1,8.7,35.4,8.8,34.7L8.8,34.7z M24.9,43.9c-0.9,1.8-1.7,3.1-2.5,3.8c0.8,0.1,1.6,0.2,2.4,0.2
			c3,0,5.8-0.7,8.3-2C30.6,46.1,27.7,45.2,24.9,43.9L24.9,43.9z M21.6,47.6c0.8-0.5,1.6-1.7,2.5-3.5c-1.4,0.5-2.8,0.7-4.3,0.8
			c0.1,1,0.4,1.8,0.7,2.4C20.9,47.4,21.2,47.5,21.6,47.6L21.6,47.6z M30.3,20.3c0.1-1.5,0.1-2.9-0.1-4.1c-1.5,0.1-3.1,0.4-4.6,1l0,0
			C27.2,18.1,28.8,19.1,30.3,20.3L30.3,20.3z M30.1,15.4c-0.2-0.9-0.4-1.7-0.8-2.3c-0.2,0-0.4-0.1-0.5-0.1c-0.9,0.4-1.8,1.7-2.7,3.4
			C27.4,16,28.7,15.6,30.1,15.4L30.1,15.4z M19.7,40.8c0,0.9-0.1,1.8,0,2.7c1-0.1,2.1-0.3,3.1-0.7C21.7,42.1,20.7,41.5,19.7,40.8
			L19.7,40.8z M18.8,46.8c-0.3-0.5-0.5-1.1-0.6-1.8c-1.4-0.1-2.8-0.3-4.1-0.8C15.5,45.3,17.1,46.2,18.8,46.8L18.8,46.8z M24.2,16.5
			c0.9-1.9,1.9-3.2,2.8-3.8c-0.7-0.1-1.4-0.1-2-0.1c-3,0-5.9,0.8-8.4,2.1l0,0C18.9,14.6,21.5,15.3,24.2,16.5L24.2,16.5z M11.3,18.9
			c-1.1,3.1-1,6.6,0,9.9c1.1-1.8,2.4-3.5,3.9-5.1c-0.1-0.2-0.2-0.5-0.2-0.8c0-0.8,0.6-1.5,1.4-1.5c0.3,0,0.6,0.1,0.8,0.3
			c1.8-1.6,3.8-2.9,5.9-4c-4.2-1.8-8.3-2-10.8,0.1l0,0C12,18.1,11.7,18.5,11.3,18.9L11.3,18.9z M25.9,43.4c4.7,1.8,9.7,2,12.3-2.5
			l0,0c0.8-2.7,0.7-5.4-0.1-8c-1,1.5-2.1,2.9-3.4,4.3c0.1,0.3,0.2,0.6,0.2,0.9c0,1.4-1.1,2.5-2.5,2.5c-0.4,0-0.8-0.1-1.1-0.3
			C29.6,41.6,27.8,42.6,25.9,43.4L25.9,43.4z M24.9,49.5c10.7,0,19.3-8.6,19.3-19.2c0-10.6-8.6-19.2-19.3-19.2
			c-10.7,0-19.3,8.6-19.3,19.2C5.6,40.9,14.3,49.5,24.9,49.5L24.9,49.5z"/>
		<path class="st0" d="M0.2,12.5L0.2,12.5c0.3-0.6,1.1-0.7,1.6-0.4l4.9,3c0.6,0.3,0.7,1.1,0.4,1.6l0,0c-0.3,0.6-1.1,0.7-1.6,0.4
			l-4.9-3C0,13.8-0.2,13.1,0.2,12.5L0.2,12.5z"/>
		<path class="st0" d="M11.3,3.1L11.3,3.1c0.6-0.3,1.3,0,1.6,0.6l2.4,5.2c0.3,0.6,0,1.3-0.6,1.6l0,0c-0.6,0.3-1.3,0-1.6-0.6
			l-2.4-5.2C10.5,4.1,10.7,3.4,11.3,3.1L11.3,3.1z"/>
		<path class="st0" d="M24.8,0L24.8,0C25.5,0,26,0.5,26,1.2v5.7c0,0.7-0.5,1.2-1.2,1.2h0c-0.7,0-1.2-0.5-1.2-1.2V1.2
			C23.6,0.5,24.2,0,24.8,0L24.8,0z"/>
		<path class="st0" d="M38.3,3.1L38.3,3.1c0.6,0.3,0.9,1,0.6,1.6l-2.4,5.2c-0.3,0.6-1,0.9-1.6,0.6l0,0c-0.6-0.3-0.9-1-0.6-1.6
			l2.4-5.2C37,3.1,37.7,2.9,38.3,3.1L38.3,3.1z"/>
		<path class="st0" d="M49.1,12.6L49.1,12.6c0.3,0.6,0.2,1.3-0.4,1.6l-4.9,3c-0.6,0.3-1.3,0.2-1.6-0.4l0,0c-0.3-0.6-0.2-1.3,0.4-1.6
			l4.9-3C48.1,11.8,48.8,12,49.1,12.6L49.1,12.6z"/>
	</g>
</g>
</svg>
